<svg width="17" height="16" viewBox="0 0 17 16" fill="none" xmlns="http://www.w3.org/2000/svg">
<path d="M7.36248 1.64084C7.65745 0.733 8.94182 0.733 9.23674 1.64084L10.2907 4.88451C10.4227 5.29052 10.8009 5.5654 11.2279 5.5654H14.6385C15.593 5.5654 15.99 6.78689 15.2177 7.34797L12.4584 9.35267C12.1131 9.60355 11.9685 10.0483 12.1005 10.4543L13.1544 13.698C13.4493 14.6058 12.4104 15.3608 11.638 14.7998L8.87885 12.795C8.53348 12.5441 8.0658 12.5441 7.72044 12.795L4.9612 14.7998C4.18895 15.3608 3.14988 14.6058 3.44485 13.698L4.49879 10.4543C4.6307 10.0483 4.48619 9.60355 4.14083 9.35267L1.38159 7.34797C0.609328 6.78689 1.00622 5.5654 1.96078 5.5654H5.37138C5.79828 5.5654 6.17662 5.29052 6.30854 4.88451L7.36248 1.64084Z" fill="#F59E0B"/>
</svg>
